<svg width="8" height="6" viewBox="0 0 8 6" fill="none" xmlns="http://www.w3.org/2000/svg">
<path d="M4.31216 5.22235L7.8722 1.66224C7.9546 1.5799 8 1.46999 8 1.35278C8 1.23558 7.9546 1.12566 7.8722 1.04332L7.61008 0.781145C7.43929 0.610545 7.1617 0.610545 6.99116 0.781145L4.00166 3.77065L1.00884 0.777828C0.926436 0.695487 0.816583 0.650024 0.699446 0.650024C0.582179 0.650024 0.472326 0.695487 0.389855 0.777828L0.127809 1.04C0.0454025 1.12241 4.74292e-06 1.23226 4.7378e-06 1.34947C4.73267e-06 1.46667 0.0454025 1.57659 0.127809 1.65893L3.69109 5.22235C3.77376 5.30488 3.88413 5.35021 4.00147 5.34995C4.11925 5.35021 4.22956 5.30488 4.31216 5.22235Z" fill="#041042"/>
</svg>
