<svg width="14" height="25" viewBox="0 0 14 25" fill="none" xmlns="http://www.w3.org/2000/svg">
<path d="M9.96583 6.1882C9.99952 6.14967 10.157 6.02379 10.7756 6.02379L12.8037 6.02303C13.4635 6.02303 14 5.47905 14 4.81033V1.21765C14 0.550079 13.4642 0.00610352 12.8056 0.00495908L9.79307 0C7.93378 0 6.3532 0.621605 5.2222 1.79787C4.09627 2.96879 3.50103 4.60339 3.50103 6.52466V8.46233H1.19649C0.53671 8.46233 0 9.00631 0 9.67503V13.5443C0 14.213 0.53671 14.757 1.19649 14.757H3.50103V23.7873C3.50103 24.456 4.03774 25 4.69753 25H8.64758C9.30736 25 9.84407 24.456 9.84407 23.7873V14.7572H12.661C13.3208 14.7572 13.8574 14.213 13.8574 13.5447L13.8589 9.67522C13.8589 9.23595 13.6231 8.8295 13.2433 8.61454C13.0673 8.51498 12.8626 8.46233 12.6515 8.46233H9.84407V6.9315C9.84407 6.43253 9.91032 6.25191 9.96583 6.1882Z" fill="#ADA282"/>
</svg>
