<svg width="46" height="46" viewBox="0 0 46 46" fill="none" xmlns="http://www.w3.org/2000/svg">
<circle cx="23" cy="23" r="23" fill="white"/>
<path d="M18.6571 21.9884L25.8218 14.8239C25.9875 14.658 26.2087 14.5667 26.4446 14.5667C26.6805 14.5667 26.9017 14.658 27.0674 14.8239L27.595 15.3514C27.9383 15.6951 27.9383 16.2537 27.595 16.5969L21.5786 22.6133L27.6017 28.6364C27.7674 28.8022 27.8589 29.0233 27.8589 29.259C27.8589 29.495 27.7674 29.7161 27.6017 29.8821L27.0741 30.4094C26.9082 30.5753 26.6871 30.6667 26.4513 30.6667C26.2154 30.6667 25.9942 30.5753 25.8285 30.4094L18.6571 23.2383C18.491 23.072 18.3998 22.8498 18.4003 22.6137C18.3998 22.3767 18.491 22.1547 18.6571 21.9884Z" fill="#CACEDC"/>
</svg>
