<svg width="25" height="25" viewBox="0 0 25 25" fill="none" xmlns="http://www.w3.org/2000/svg">
<path d="M18.0066 0H6.68335C2.99809 0 0 2.99809 0 6.68335V18.0068C0 21.6919 2.99809 24.69 6.68335 24.69H18.0068C21.6919 24.69 24.69 21.6919 24.69 18.0068V6.68335C24.69 2.99809 21.6919 0 18.0066 0V0ZM12.345 19.096C8.62242 19.096 5.59401 16.0675 5.59401 12.345C5.59401 8.62242 8.62242 5.59401 12.345 5.59401C16.0675 5.59401 19.096 8.62242 19.096 12.345C19.096 16.0675 16.0675 19.096 12.345 19.096ZM19.2574 7.18611C18.1573 7.18611 17.2626 6.29135 17.2626 5.19127C17.2626 4.0912 18.1573 3.19625 19.2574 3.19625C20.3575 3.19625 21.2524 4.0912 21.2524 5.19127C21.2524 6.29135 20.3575 7.18611 19.2574 7.18611Z" fill="#D2D3DA"/>
<path d="M12.345 7.04138C9.4208 7.04138 7.0415 9.42049 7.0415 12.3449C7.0415 15.2692 9.4208 17.6485 12.345 17.6485C15.2695 17.6485 17.6486 15.2692 17.6486 12.3449C17.6486 9.42049 15.2695 7.04138 12.345 7.04138Z" fill="#D2D3DA"/>
<path d="M19.2574 4.64392C18.9556 4.64392 18.71 4.88955 18.71 5.19132C18.71 5.49309 18.9556 5.73872 19.2574 5.73872C19.5593 5.73872 19.805 5.49328 19.805 5.19132C19.805 4.88937 19.5593 4.64392 19.2574 4.64392Z" fill="#D2D3DA"/>
</svg>
