<svg width="60" height="60" viewBox="0 0 60 60" fill="none" xmlns="http://www.w3.org/2000/svg">
<circle cx="30" cy="30" r="30" fill="white"/>
<path d="M24.3351 28.6806L33.6803 19.3355C33.8965 19.1192 34.185 19 34.4927 19C34.8003 19 35.0889 19.1192 35.305 19.3355L35.9932 20.0235C36.441 20.4719 36.441 21.2005 35.9932 21.6482L28.1458 29.4956L36.0019 37.3518C36.2181 37.5681 36.3374 37.8565 36.3374 38.164C36.3374 38.4718 36.2181 38.7602 36.0019 38.9766L35.3137 39.6645C35.0974 39.8808 34.809 40 34.5014 40C34.1937 40 33.9052 39.8808 33.689 39.6645L24.3351 30.3109C24.1184 30.0939 23.9994 29.8042 24.0001 29.4962C23.9994 29.187 24.1184 28.8974 24.3351 28.6806Z" fill="#CACEDC"/>
</svg>
