<svg width="42" height="42" viewBox="0 0 42 42" fill="none" xmlns="http://www.w3.org/2000/svg">
<circle cx="21" cy="21" r="20" stroke="#DAD1B3" stroke-width="2"/>
<path d="M27.5131 13.7674C26.1779 11.4632 23.8064 10.0555 21.1692 10.0017C21.0566 9.99942 20.9433 9.99942 20.8307 10.0017C18.1935 10.0555 15.822 11.4632 14.4868 13.7674C13.122 16.1226 13.0847 18.9517 14.3869 21.3352L19.8423 31.3206C19.8448 31.325 19.8472 31.3294 19.8497 31.3338C20.0898 31.751 20.5198 32 21 32C21.4802 32 21.9102 31.7509 22.1502 31.3338C22.1527 31.3294 22.1552 31.325 22.1576 31.3206L27.6131 21.3352C28.9152 18.9517 28.8779 16.1226 27.5131 13.7674ZM20.9999 19.9688C19.294 19.9688 17.9062 18.5809 17.9062 16.875C17.9062 15.1691 19.294 13.7813 20.9999 13.7813C22.7058 13.7813 24.0937 15.1691 24.0937 16.875C24.0937 18.5809 22.7059 19.9688 20.9999 19.9688Z" fill="#E54146"/>
</svg>
