<svg width="60" height="60" viewBox="0 0 60 60" fill="none" xmlns="http://www.w3.org/2000/svg">
<circle cx="30" cy="30" r="30" transform="rotate(-180 30 30)" fill="white"/>
<path d="M35.6645 31.3194L26.3192 40.6645C26.103 40.8808 25.8145 41 25.5069 41C25.1992 41 24.9107 40.8808 24.6945 40.6645L24.0063 39.9765C23.5585 39.5281 23.5585 38.7995 24.0063 38.3518L31.8538 30.5044L23.9976 22.6482C23.7814 22.4319 23.6621 22.1435 23.6621 21.836C23.6621 21.5282 23.7814 21.2398 23.9976 21.0234L24.6858 20.3355C24.9021 20.1192 25.1905 20 25.4981 20C25.8058 20 26.0943 20.1192 26.3105 20.3355L35.6645 29.6891C35.8811 29.9061 36.0001 30.1958 35.9994 30.5038C36.0001 30.813 35.8811 31.1026 35.6645 31.3194Z" fill="#CACEDC"/>
</svg>
