<svg width="25" height="15" viewBox="0 0 25 15" fill="none" xmlns="http://www.w3.org/2000/svg">
<path d="M24.4681 12.5642C24.4017 12.4531 23.9913 11.5612 22.0161 9.72797C19.9483 7.80833 20.2261 8.12004 22.7167 4.80079C24.2335 2.77929 24.84 1.5448 24.6502 1.01705C24.4696 0.513991 23.354 0.646699 23.354 0.646699L19.6443 0.668303C19.6443 0.668303 19.3696 0.631268 19.1644 0.753175C18.9653 0.873538 18.8372 1.1513 18.8372 1.1513C18.8372 1.1513 18.2493 2.71603 17.4654 4.0462C15.8127 6.85314 15.1507 7.00128 14.8807 6.8269C14.2526 6.42106 14.41 5.19428 14.41 4.32396C14.41 1.60344 14.822 0.46924 13.6061 0.176047C13.2018 0.0788299 12.9055 0.0140188 11.8731 0.00321697C10.5491 -0.0106711 9.42728 0.00784633 8.79306 0.318014C8.37024 0.524792 8.04464 0.986187 8.24371 1.01242C8.48906 1.04483 9.04459 1.1621 9.33932 1.56331C9.72047 2.08026 9.70659 3.24377 9.70659 3.24377C9.70659 3.24377 9.92571 6.44575 9.19581 6.84388C8.6943 7.11701 8.00761 6.55994 6.53393 4.01225C5.77934 2.70831 5.20838 1.26549 5.20838 1.26549C5.20838 1.26549 5.09882 0.996988 4.90284 0.853478C4.6652 0.679105 4.33189 0.623553 4.33189 0.623553L0.804312 0.645156C0.804312 0.645156 0.27502 0.660588 0.0805869 0.890513C-0.0922429 1.09575 0.0666988 1.51856 0.0666988 1.51856C0.0666988 1.51856 2.82889 7.97962 5.95526 11.2371C8.82392 14.2231 12.0799 14.0271 12.0799 14.0271H13.5551C13.5551 14.0271 14.0011 13.9777 14.2279 13.7324C14.4378 13.5071 14.4301 13.0843 14.4301 13.0843C14.4301 13.0843 14.4008 11.1044 15.3205 10.8128C16.2263 10.5258 17.3898 12.7263 18.6227 13.5734C19.5548 14.2138 20.2631 14.0734 20.2631 14.0734L23.5607 14.0271C23.5607 14.0271 25.286 13.9206 24.4681 12.5642Z" fill="#D2D3DA"/>
</svg>
